<svg id="svg" xmlns="http://www.w3.org/2000/svg" xmlns:xlink="http://www.w3.org/1999/xlink" width="400" height="400" viewBox="0, 0, 400,400"><g id="svgg"><path id="path0" d="M175.000 1.185 C 11.863 21.386,-58.381 221.347,56.207 339.352 C 162.324 448.634,347.623 403.882,391.747 258.315 C 433.722 119.835,318.706 -16.610,175.000 1.185 M294.141 97.157 C 346.637 111.201,311.958 211.045,230.078 281.600 C 200.819 306.811,190.271 309.683,173.353 297.044 C 159.766 286.894,157.943 282.663,134.051 205.832 C 116.142 148.240,115.967 148.035,95.462 160.703 C 92.321 162.643,89.665 164.105,89.559 163.951 C 89.453 163.798,87.540 161.337,85.308 158.483 C 80.199 151.950,79.977 152.987,88.477 143.655 C 107.447 122.827,131.318 104.676,146.392 99.616 C 169.032 92.015,179.042 104.996,187.053 152.344 C 194.669 197.361,204.828 228.216,211.995 228.097 C 221.070 227.947,247.908 188.337,250.883 170.703 C 254.057 151.890,240.081 140.610,223.132 148.304 C 218.344 150.478,218.194 150.297,219.843 144.365 C 228.468 113.344,265.853 89.590,294.141 97.157 " stroke="none" fill="#000000" fill-rule="evenodd"></path></g></svg>