<svg class="icon_facebook" xmlns="http://www.w3.org/2000/svg" width="400" height="400" viewBox="0 0 0 0 400 400"><path d="M175 1.185C11.863 21.386-58.381 221.347 56.207 339.352c106.117 109.282 291.416 64.53 335.54-81.037C433.722 119.835 318.706-16.61 175 1.185m80.469 99.523v20.239l-14.788.269c-21.629.393-21.928.713-21.93 23.511l-.001 14.648h18.359c10.956 0 18.36.297 18.36.735 0 .405-.879 8.93-1.953 18.946-1.074 10.015-1.953 18.649-1.953 19.186 0 .743-3.221.979-13.477.985-7.412.005-14.795.227-16.406.493l-2.93.484v119.327h-44.531V200h-29.688v-40.625h29.688V144.11c0-53.444 9.428-63.308 60.742-63.546l20.508-.095v20.239" fill-rule="evenodd"/></svg>