<svg class="icon_vimeo" xmlns="http://www.w3.org/2000/svg" viewBox="0 0 400 400"><path d="M175 1.185C11.863 21.386-58.381 221.347 56.207 339.352c106.117 109.282 291.416 64.53 335.54-81.037C433.722 119.835 318.706-16.61 175 1.185m119.141 95.972c52.496 14.044 17.817 113.888-64.063 184.443-29.259 25.211-39.807 28.083-56.725 15.444-13.587-10.15-15.41-14.381-39.302-91.212-17.909-57.592-18.084-57.797-38.589-45.129-3.141 1.94-5.797 3.402-5.903 3.248-.106-.153-2.019-2.614-4.251-5.468-5.109-6.533-5.331-5.496 3.169-14.828 18.97-20.828 42.841-38.979 57.915-44.039 22.64-7.601 32.65 5.38 40.661 52.728 7.616 45.017 17.775 75.872 24.942 75.753 9.075-.15 35.913-39.76 38.888-57.394 3.174-18.813-10.802-30.093-27.751-22.399-4.788 2.174-4.938 1.993-3.289-3.939 8.625-31.021 46.01-54.775 74.298-47.208" fill-rule="evenodd"/></svg>