<svg class="icon_google" xmlns="http://www.w3.org/2000/svg" width="400" height="400" viewBox="0 0 0 0 400 400"><path d="M175 1.185C11.863 21.386-58.381 221.347 56.207 339.352c106.117 109.282 291.416 64.53 335.54-81.037C433.722 119.835 318.706-16.61 175 1.185m51.914 76.824c-.408.365-4.299 3.178-8.647 6.25l-7.904 5.585-12.799.036-12.798.037 3.888 2.021c19.67 10.229 28.391 43.02 17.275 64.956-3.373 6.655-9.206 13.503-17.589 20.647-21.91 18.672-20.453 27.69 8.025 49.674 18.175 14.03 24.458 25.225 25.285 45.051 1.872 44.852-45.846 71.099-107.06 58.888-44.532-8.883-63.203-37.868-43.434-67.426 13.783-20.606 37.885-31.723 71.578-33.015l12.655-.486-3.077-3.495c-8.536-9.698-9.853-19.618-4.301-32.396.542-1.248-.055-1.367-6.843-1.367-33.687 0-58.894-22.366-60.509-53.689-1.569-30.414 25.308-57.077 61.919-61.424 5.153-.612 85.028-.467 84.336.153m-98.943 12.14c-31.317 12.88-24.644 74.451 9.92 91.533 23.532 11.63 44.114-3.383 45.509-33.196 1.72-36.755-29.082-69.173-55.429-58.337M300 125v25h50v25h-50v50h-24.219v-50H225v-25h50.781v-50H300v25M135.423 238.656c-42.879 7.781-58.715 46.664-29.025 71.266 25.273 20.942 79.655 14.388 92.051-11.094 10.476-21.535-.058-42.943-28.326-57.566-6.689-3.461-23.17-4.698-34.7-2.606" fill-rule="evenodd"/></svg>