<svg id="svg" xmlns="http://www.w3.org/2000/svg" xmlns:xlink="http://www.w3.org/1999/xlink" width="400" height="400" viewBox="0, 0, 400,400"><g id="svgg"><path id="path0" d="M175.000 1.185 C 11.863 21.386,-58.381 221.347,56.207 339.352 C 162.324 448.634,347.623 403.882,391.747 258.315 C 433.722 119.835,318.706 -16.610,175.000 1.185 M217.733 51.976 C 341.421 68.003,392.970 217.309,305.140 305.140 C 217.309 392.970,68.003 341.421,51.976 217.733 C 39.754 123.411,123.411 39.754,217.733 51.976 M188.672 72.399 C 183.787 72.807,170.760 75.113,170.191 75.670 C 169.909 75.946,173.074 80.998,177.222 86.897 C 187.329 101.266,200.688 122.131,209.864 137.880 C 213.999 144.975,217.709 150.781,218.110 150.781 C 221.218 150.781,242.203 140.432,252.734 133.705 C 263.994 126.513,285.156 107.607,285.156 104.739 C 285.156 104.435,282.959 102.433,280.273 100.289 C 254.423 79.652,221.575 69.651,188.672 72.399 M138.123 87.824 C 106.593 105.835,83.274 136.323,75.386 169.847 L 74.301 174.460 89.299 173.979 C 121.092 172.959,184.185 163.637,192.664 158.707 C 194.413 157.690,155.521 95.490,147.041 85.742 C 145.384 83.837,144.908 83.948,138.123 87.824 M291.016 127.197 C 277.445 141.445,261.532 152.743,239.995 163.423 C 229.883 168.437,227.356 170.000,227.741 171.003 C 228.007 171.697,230.564 177.453,233.422 183.793 L 238.620 195.321 244.896 194.731 C 265.673 192.777,300.996 194.613,325.195 198.904 L 328.125 199.423 328.110 195.610 C 328.023 174.011,319.192 147.500,305.322 127.206 C 298.897 117.806,299.960 117.806,291.016 127.197 M192.969 180.539 C 165.335 188.266,128.461 193.691,91.602 195.452 L 71.875 196.394 71.889 203.080 C 71.946 229.682,82.753 259.105,100.597 281.240 C 105.062 286.778,104.752 286.716,107.432 282.617 C 130.878 246.757,168.458 216.109,204.455 203.489 C 209.095 201.863,213.194 200.267,213.564 199.944 C 213.935 199.620,212.001 194.592,209.268 188.770 C 203.534 176.561,204.839 177.220,192.969 180.539 M257.031 213.385 C 247.726 214.227,245.880 214.654,246.378 215.849 C 252.459 230.418,267.503 284.835,269.991 301.259 C 270.852 306.942,271.171 306.969,277.868 301.933 C 301.152 284.423,318.889 256.308,325.372 226.638 C 326.871 219.779,327.126 220.110,318.750 218.076 C 298.990 213.278,276.818 211.593,257.031 213.385 M214.453 223.487 C 175.795 238.733,143.535 264.268,124.725 294.511 C 120.263 301.686,120.151 300.761,125.977 304.864 C 160.038 328.851,202.322 334.674,242.773 320.947 C 251.121 318.115,250.723 319.061,248.397 307.545 C 242.994 280.789,225.071 220.088,222.656 220.362 C 222.441 220.386,218.750 221.793,214.453 223.487 " stroke="none" fill="#000000" fill-rule="evenodd"></path></g></svg>