<svg class="icon_dribbble" xmlns="http://www.w3.org/2000/svg" viewBox="0 0 400 400"><path d="M175 1.185C11.863 21.386-58.381 221.347 56.207 339.352c106.117 109.282 291.416 64.53 335.54-81.037C433.722 119.835 318.706-16.61 175 1.185m42.733 50.791C341.421 68.003 392.97 217.309 305.14 305.14c-87.831 87.83-237.137 36.281-253.164-87.407-12.222-94.322 71.435-177.979 165.757-165.757m-29.061 20.423c-4.885.408-17.912 2.714-18.481 3.271-.282.276 2.883 5.328 7.031 11.227 10.107 14.369 23.466 35.234 32.642 50.983 4.135 7.095 7.845 12.901 8.246 12.901 3.108 0 24.093-10.349 34.624-17.076 11.26-7.192 32.422-26.098 32.422-28.966 0-.304-2.197-2.306-4.883-4.45-25.85-20.637-58.698-30.638-91.601-27.89m-50.549 15.425c-31.53 18.011-54.849 48.499-62.737 82.023l-1.085 4.613 14.998-.481c31.793-1.02 94.886-10.342 103.365-15.272 1.749-1.017-37.143-63.217-45.623-72.965-1.657-1.905-2.133-1.794-8.918 2.082m152.893 39.373c-13.571 14.248-29.484 25.546-51.021 36.226-10.112 5.014-12.639 6.577-12.254 7.58.266.694 2.823 6.45 5.681 12.79l5.198 11.528 6.276-.59c20.777-1.954 56.1-.118 80.299 4.173l2.93.519-.015-3.813c-.087-21.599-8.918-48.11-22.788-68.404-6.425-9.4-5.362-9.4-14.306-.009m-98.047 53.342c-27.634 7.727-64.508 13.152-101.367 14.913l-19.727.942.014 6.686c.057 26.602 10.864 56.025 28.708 78.16 4.465 5.538 4.155 5.476 6.835 1.377 23.446-35.86 61.026-66.508 97.023-79.128 4.64-1.626 8.739-3.222 9.109-3.545.371-.324-1.563-5.352-4.296-11.174-5.734-12.209-4.429-11.55-16.299-8.231m64.062 32.846c-9.305.842-11.151 1.269-10.653 2.464 6.081 14.569 21.125 68.986 23.613 85.41.861 5.683 1.18 5.71 7.877.674 23.284-17.51 41.021-45.625 47.504-75.295 1.499-6.859 1.754-6.528-6.622-8.562-19.76-4.798-41.932-6.483-61.719-4.691m-42.578 10.102c-38.658 15.246-70.918 40.781-89.728 71.024-4.462 7.175-4.574 6.25 1.252 10.353 34.061 23.987 76.345 29.81 116.796 16.083 8.348-2.832 7.95-1.886 5.624-13.402-5.403-26.756-23.326-87.457-25.741-87.183-.215.024-3.906 1.431-8.203 3.125" fill-rule="evenodd"/></svg>