<svg class="icon_linkedin" xmlns="http://www.w3.org/2000/svg" viewBox="0 0 400 400"><path d="M175 1.185C11.863 21.386-58.381 221.347 56.207 339.352c106.117 109.282 291.416 64.53 335.54-81.037C433.722 119.835 318.706-16.61 175 1.185M134.677 66.44c14.866 5.562 19.368 24.635 8.633 36.574a22.444 22.444 0 0 1-33.495 0c-15.948-17.737 2.535-44.927 24.862-36.574M150 209.375v87.5h-50v-175h50v87.5m75-78.869v8.632l3.32-2.237c40.259-27.116 82.603-15.257 93.144 26.084 2.681 10.516 2.886 15.156 3.283 74.32l.4 59.57H275v-58.087c0-41.346-.256-58.851-.889-60.742-5.904-17.634-37.587-13.979-47.515 5.481-1.563 3.064-1.596 4.282-1.596 58.239v55.109h-50v-175h50v8.631" fill-rule="evenodd"/></svg>