<svg xmlns="http://www.w3.org/2000/svg" viewBox="0 0 400 400"><path d="M175 1.185C11.863 21.386-58.381 221.347 56.207 339.352c106.117 109.282 291.416 64.53 335.54-81.037C433.722 119.835 318.706-16.61 175 1.185m85.402 107.001c6.977 1.479 15.402 5.631 21.278 10.488l4.727 3.907 5.438-1.399c6.872-1.768 13.094-4.091 19.174-7.16 5.858-2.958 5.944-2.878 3.065 2.842-3.299 6.556-8.418 12.737-14.063 16.98-4.524 3.401-4.708 3.656-2.637 3.655 2.799-.001 17.277-3.481 21.062-5.063 3.758-1.57 3.836-1.536 2.214.962-2.815 4.338-9.485 11.447-15.265 16.271l-5.933 4.951-.489 10.776c-4.668 102.816-110.11 166.7-200.377 121.402-14.253-7.152-14.187-6.714-1.017-6.755 20.024-.061 36.291-5.004 53.398-16.228 6.248-4.099 7.206-5.221 4.459-5.221-15.341 0-33.383-11.914-41.029-27.094l-2.683-5.328 10.16-.436c11.339-.487 13.961-1.491 8.042-3.078-18.187-4.879-33.297-22.808-35.339-41.931l-.514-4.819 1.987 1.003c5.24 2.644 20.346 5.841 20.346 4.306 0-.295-1.465-1.55-3.257-2.79-17.435-12.07-23.656-40.826-13.099-60.552.692-1.293 1.279-.896 5.404 3.656 23.629 26.074 63.817 45.604 93.939 45.652l2.909.005-.477-7.265c-2.167-32.984 26.71-58.489 58.577-51.737" fill-rule="evenodd"/></svg>